<svg width="60" height="48" viewBox="0 0 60 48" fill="none" xmlns="http://www.w3.org/2000/svg">
<path d="M23.6423 10.9766C24.4487 10.2509 24.5422 9.04372 23.8511 8.28032C23.16 7.51692 21.9461 7.48639 21.1397 8.21212L23.6423 10.9766ZM3.39698 26.0013C2.62547 26.7636 2.59168 27.9708 3.32151 28.6977C4.05134 29.4245 5.26842 29.3958 6.03994 28.6334L3.39698 26.0013ZM21.1397 8.21212C14.7761 13.939 9.19343 20.2738 3.39698 26.0013L6.03994 28.6334C12.1547 22.5914 17.3271 16.66 23.6423 10.9766L21.1397 8.21212Z" fill="#685BB8"/>
<path d="M51.6917 12.3198C52.6744 11.8706 53.1445 10.7341 52.7417 9.78138C52.3389 8.82865 51.2158 8.42045 50.2331 8.86964L51.6917 12.3198ZM10.1314 30.8827C9.21323 31.4583 8.90153 32.64 9.43522 33.5221C9.9689 34.4043 11.1459 34.6528 12.0641 34.0773L10.1314 30.8827ZM50.2331 8.86964C36.0627 15.347 22.6902 23.0104 10.1314 30.8827L12.0641 34.0773C24.5326 26.2615 37.7398 18.6972 51.6917 12.3198L50.2331 8.86964Z" fill="#685BB8"/>
<path d="M53.0359 33.1184C54.0979 33.0569 54.9529 32.1546 54.9456 31.1031C54.9383 30.0516 54.0715 29.249 53.0095 29.3106L53.0359 33.1184ZM14.3739 37.1458C13.3301 37.3932 12.6428 38.4238 12.8387 39.4476C13.0346 40.4715 14.0395 41.1009 15.0833 40.8535L14.3739 37.1458ZM53.0095 29.3106C41.3395 29.9868 25.4663 34.5166 14.3739 37.1458L15.0833 40.8535C26.5321 38.1398 41.8224 33.7682 53.0359 33.1184L53.0095 29.3106Z" fill="#685BB8"/>
</svg>
